<?xml version="1.0" encoding="UTF-8"?>
<svg width="50px" height="17px" viewBox="0 0 50 17" version="1.1" xmlns="http://www.w3.org/2000/svg" xmlns:xlink="http://www.w3.org/1999/xlink">
    <!-- Generator: Sketch 60 (88103) - https://sketch.com -->
    <title>Logo_bingo_UX</title>
    <desc>Created with Sketch.</desc>
    <defs>
        <linearGradient x1="17.0784299%" y1="82.1349583%" x2="82.8723538%" y2="17.8819474%" id="linearGradient-1">
            <stop stop-color="#0098A9" offset="0.044188%"></stop>
            <stop stop-color="#00EDCD" offset="99.71%"></stop>
        </linearGradient>
    </defs>
    <g id="Symbols" stroke="none" stroke-width="1" fill="none" fill-rule="evenodd">
        <g id="Product-card/B2C/Claim/Bingo" transform="translate(0.000000, -1.000000)" fill-rule="nonzero">
            <g id="Logo_bingo_UX" transform="translate(0.000000, 1.000000)">
                <rect id="Rectangle" fill="#FFFFFF" x="2.56578947" y="2.63157895" width="8.29605263" height="8.29605263"></rect>
                <g id="Group">
                    <g transform="translate(14.473684, 0.855263)" fill="#0A1F44">
                        <path d="M5.76973684,3.17763158 C6.49342105,3.17763158 7.05921053,3.44736842 7.47368421,3.99342105 C7.88815789,4.53289474 8.09868421,5.28289474 8.09868421,6.23684211 C8.09868421,7.19078947 7.92763158,8.11184211 7.59210526,9 C7.25657895,9.88815789 6.79605263,10.5986842 6.21052632,11.1184211 C5.625,11.6381579 4.97368421,11.9013158 4.26315789,11.9013158 C3.30263158,11.9013158 2.625,11.4934211 2.21710526,10.6776316 L2.15789474,10.6776316 L1.73026316,11.7565789 L0.0197368421,11.7565789 L2.46052632,0.0460526316 L4.69078947,0.0460526316 L4.23026316,2.21052632 C4.02631579,3.125 3.82236842,3.875 3.60526316,4.46052632 L3.66447368,4.46052632 C4.05263158,3.96710526 4.40131579,3.63157895 4.71710526,3.45394737 C5.04605263,3.26973684 5.39473684,3.17763158 5.76973684,3.17763158 Z M4.875,5.01315789 C4.53947368,5.01315789 4.21710526,5.17763158 3.91447368,5.5 C3.61184211,5.82236842 3.35526316,6.27631579 3.15789474,6.85526316 C2.96052632,7.43421053 2.86184211,8.06578947 2.86184211,8.74342105 C2.86184211,9.14473684 2.95394737,9.46710526 3.13815789,9.70394737 C3.32236842,9.94078947 3.57236842,10.0657895 3.89473684,10.0657895 C4.22368421,10.0657895 4.53947368,9.89473684 4.84210526,9.54605263 C5.14473684,9.19736842 5.38815789,8.72368421 5.57236842,8.11842105 C5.75657895,7.51315789 5.84868421,6.92105263 5.84868421,6.32894737 C5.84210526,5.46052632 5.51973684,5.01315789 4.875,5.01315789 Z" id="Shape"></path>
                        <path d="M10.4144737,11.75 L8.18421053,11.75 L9.94078947,3.33552632 L12.1710526,3.33552632 L10.4144737,11.75 Z M10.2960526,1.36842105 C10.2960526,0.934210526 10.4144737,0.598684211 10.6447368,0.381578947 C10.8815789,0.157894737 11.2105263,0.0460526316 11.6381579,0.0460526316 C12,0.0460526316 12.2697368,0.125 12.4605263,0.276315789 C12.6513158,0.427631579 12.7434211,0.657894737 12.7434211,0.947368421 C12.7434211,1.34868421 12.6315789,1.67105263 12.4144737,1.92105263 C12.1973684,2.17105263 11.8618421,2.29605263 11.4078947,2.29605263 C10.6710526,2.28947368 10.2960526,1.98684211 10.2960526,1.36842105 Z" id="Shape"></path>
                        <path d="M18.8815789,11.75 L16.6513158,11.75 L17.6644737,6.83552632 C17.7434211,6.49342105 17.7828947,6.19736842 17.7828947,5.94078947 C17.7828947,5.32236842 17.5131579,5.01315789 16.9802632,5.01315789 C16.5263158,5.01315789 16.1118421,5.29605263 15.7434211,5.86842105 C15.375,6.44078947 15.0789474,7.23684211 14.8684211,8.26315789 L14.1447368,11.75 L11.9144737,11.75 L13.6710526,3.33552632 L15.375,3.33552632 L15.2171053,4.89473684 L15.2631579,4.89473684 C15.9868421,3.75 16.8618421,3.17763158 17.8947368,3.17763158 C18.5789474,3.17763158 19.1052632,3.38815789 19.4736842,3.80263158 C19.8486842,4.22368421 20.0328947,4.82236842 20.0328947,5.59868421 C20.0328947,5.96710526 19.9736842,6.41447368 19.8618421,6.95394737 L18.8815789,11.75 Z" id="Path"></path>
                        <path d="M28.7236842,3.35526316 L28.4671053,4.60526316 L27.1776316,4.91447368 C27.2565789,5.17763158 27.2960526,5.47368421 27.2960526,5.80263158 C27.2960526,6.78289474 27,7.55263158 26.4013158,8.125 C25.8026316,8.69736842 24.9934211,8.98026316 23.9671053,8.98026316 C23.6776316,8.98026316 23.4342105,8.95394737 23.2368421,8.90789474 C22.8223684,9.04605263 22.6118421,9.23684211 22.6118421,9.49342105 C22.6118421,9.66447368 22.6842105,9.78947368 22.8355263,9.86184211 C22.9802632,9.93421053 23.2039474,9.99342105 23.4934211,10.0328947 L24.5065789,10.1710526 C25.3092105,10.2763158 25.8947368,10.4868421 26.2631579,10.8092105 C26.6315789,11.125 26.8157895,11.5855263 26.8157895,12.1907895 C26.8157895,13.25 26.4276316,14.0592105 25.6578947,14.6184211 C24.8881579,15.1776316 23.7894737,15.4605263 22.3552632,15.4605263 C21.3289474,15.4605263 20.5263158,15.2697368 19.9539474,14.8947368 C19.3815789,14.5131579 19.0921053,13.9934211 19.0921053,13.3355263 C19.0921053,12.8223684 19.2631579,12.3815789 19.5986842,12.0131579 C19.9342105,11.6447368 20.4671053,11.3421053 21.1842105,11.0986842 C20.8157895,10.8618421 20.6381579,10.5263158 20.6381579,10.0986842 C20.6381579,9.74342105 20.75,9.43421053 20.9671053,9.17763158 C21.1842105,8.92105263 21.5460526,8.67105263 22.0526316,8.43421053 C21.7302632,8.19078947 21.4934211,7.90789474 21.3421053,7.59210526 C21.1907895,7.27631579 21.1118421,6.89473684 21.1118421,6.44078947 C21.1118421,5.44078947 21.4210526,4.65131579 22.0394737,4.06578947 C22.6578947,3.48026316 23.5,3.19078947 24.5657895,3.19078947 C24.9736842,3.19078947 25.3881579,3.25 25.7960526,3.36184211 L28.7236842,3.36184211 L28.7236842,3.35526316 Z M22.6447368,11.7960526 C22.1184211,11.8684211 21.7236842,12.0065789 21.4539474,12.2236842 C21.1842105,12.4407895 21.0526316,12.7105263 21.0526316,13.0460526 C21.0526316,13.625 21.5328947,13.9144737 22.4868421,13.9144737 C23.2302632,13.9144737 23.7960526,13.8026316 24.1776316,13.5789474 C24.5592105,13.3552632 24.75,13.0328947 24.75,12.625 C24.75,12.4276316 24.6710526,12.2763158 24.5065789,12.1710526 C24.3486842,12.0657895 24.0065789,11.9802632 23.4868421,11.9078947 L22.6447368,11.7960526 Z M24.4934211,4.61842105 C24.1118421,4.61842105 23.8092105,4.80921053 23.5723684,5.19078947 C23.3355263,5.57236842 23.2236842,6.05263158 23.2236842,6.63157895 C23.2236842,7.23026316 23.4802632,7.52631579 23.9868421,7.52631579 C24.3552632,7.52631579 24.6578947,7.33552632 24.8881579,6.95394737 C25.1184211,6.57236842 25.2302632,6.08552632 25.2302632,5.5 C25.2302632,4.91447368 24.9802632,4.61842105 24.4934211,4.61842105 Z" id="Shape"></path>
                        <path d="M35.5131579,6.51315789 C35.5131579,7.57236842 35.3421053,8.51315789 34.9934211,9.32894737 C34.6447368,10.1447368 34.1447368,10.7828947 33.4868421,11.2302632 C32.8289474,11.6776316 32.0526316,11.9013158 31.1447368,11.9013158 C30.1842105,11.9013158 29.4144737,11.6052632 28.8355263,11.0197368 C28.2631579,10.4276316 27.9736842,9.64473684 27.9736842,8.67105263 C27.9736842,7.60526316 28.1513158,6.65131579 28.5,5.81578947 C28.8552632,4.98026316 29.3618421,4.33552632 30.0263158,3.875 C30.6907895,3.41447368 31.4736842,3.18421053 32.3684211,3.18421053 C33.3355263,3.18421053 34.0986842,3.48026316 34.6644737,4.07236842 C35.2302632,4.65789474 35.5131579,5.47368421 35.5131579,6.51315789 Z M33.2697368,6.51315789 C33.2697368,5.52631579 32.9144737,5.03289474 32.2105263,5.03289474 C31.8421053,5.03289474 31.5065789,5.18421053 31.2171053,5.49342105 C30.9210526,5.80263158 30.6842105,6.25 30.5,6.84210526 C30.3157895,7.43421053 30.2236842,8.04605263 30.2236842,8.67105263 C30.2236842,9.59868421 30.5921053,10.0657895 31.3355263,10.0657895 C31.7039474,10.0657895 32.0394737,9.91447368 32.3355263,9.60526316 C32.6315789,9.29605263 32.8618421,8.86842105 33.0263158,8.31578947 C33.1842105,7.75657895 33.2697368,7.15789474 33.2697368,6.51315789 Z" id="Shape"></path>
                    </g>
                    <path d="M13.4736842,4.71052632 L9.43421053,0.375 C9.14473684,0.0657894737 8.71052632,-0.0657894737 8.29605263,0.0328947368 L2.57894737,1.42105263 C2.17105263,1.52631579 1.84210526,1.84210526 1.72368421,2.25 L0.0526315789,7.97368421 C-0.0657894737,8.38815789 0.0394736842,8.83552632 0.328947368,9.14473684 L4.36842105,13.4802632 C4.65789474,13.7894737 5.09210526,13.9210526 5.50657895,13.8223684 L11.2236842,12.4342105 C11.6381579,12.3355263 11.9605263,12.0197368 12.0855263,11.6052632 L13.7565789,5.88157895 C13.8684211,5.46710526 13.7631579,5.01973684 13.4736842,4.71052632 Z M10.1907895,8.63815789 L7.53289474,7.48026316 L8.35526316,10.2368421 L6.625,10.6447368 L6.41447368,7.625 L4.18421053,9.27631579 L3.30263158,7.81578947 L6.03289474,6.53947368 L3.875,4.49342105 L5.20394737,3.33552632 L6.88157895,5.80263158 L8.58552632,3.20394737 L9.83552632,4.34210526 L7.88157895,6.34868421 L10.8157895,6.98684211 L10.1907895,8.63815789 Z" id="Shape" fill="url(#linearGradient-1)"></path>
                </g>
            </g>
        </g>
    </g>
</svg>