<svg version="1.1" id="Calque_2" xmlns="http://www.w3.org/2000/svg" x="0" y="0" viewBox="0 0 200 200" xml:space="preserve"><style>.st0{fill:#e8e8e8}</style><path class="st0" d="M70.8 101.9l.2.2 10 9c.7.7 1.5 1 2.4.7l2.9-1.2-2 1.5c-1 1-1 2.4 0 3.4l4.9 5.1c1 .7 2.4 1.2 4.1 1.2 2 0 3.4-.7 4.4-2l18.8-18.8h.7c1.2 0 2.2-.7 2.9-1.2l6.8-6.8c1-1 1.2-2 1.2-2.9 0-1.2-.7-2.2-1.2-2.9-2.9-2.9-5.6-7.8-4.9-11 .2-1 .7-2.4 3.2-3.4 9.8-4.4 16.3-10.7 17.6-17.3.2-3.2-.5-6.1-3.4-8.8-2.4-2.4-5.9-3.4-9.3-2.9-6.3 1-12.4 7.6-16.8 17.3-1.2 2.4-2.4 2.9-3.4 3.2-3.2.7-8-2.2-11-5.1-1.5-1.5-4.4-1.5-5.6 0L90 62.4l-3.4 3.9c-1 .7-1.2 1.5-1.2 2.9v.8L66.6 88.8c-2.4 2.4-2.4 6.6 0 9l4.2 4.1zm20.9-34.4l2.9 2.9.2.2.2.2c1 .7 2.2 1.2 3.4 0 1-1 1-2.4 0-3.4l-3.7-3.2 1.2-1.2c3.7 3.7 9.8 6.8 14.6 5.9 3.2-.7 5.4-2.4 6.8-5.6 3.7-8.5 9-14.1 14.1-14.6 2.2-.2 3.7.2 5.4 1.5 1 1.5 1.2 2.9 1 4.9-1 4.6-6.6 10-14.6 14.1-3.2 1.5-5.4 3.7-5.6 6.8-1 5.1 2.2 11 5.9 14.6l-6.3 6.3L90.3 69l1.4-1.5zM70 92.2l18-18 24.9 25.1-18 17.3c-.7.7-2 .7-2.4 0l-3.4-3.4 7.6-7.6c1-1 1-2 .2-2.9-.7-1-2-1.2-2.9-1l-11 4.4-7.1-6.1 2.2-2.2c.7-.7.7-1.2.7-1.5 0-.7-.2-1.2-.7-1.5-1-1-2.2-1-3.2 0L72.5 97 70 94.6c-.7-.7-.7-1.9 0-2.4z"/><path class="st0" d="M167.1 28H40.7c-1 0-1.8.9-1.8 2v140c0 1.1.8 2 1.8 2h126.4c1 0 1.8-.9 1.8-2V30c0-1.1-.8-2-1.8-2zm-1.8 140H42.5v-33.6h122.8V168zm0-37.6H42.5V32h122.8v98.4z"/><path class="st0" d="M35.5 181l-3.7-33.4 4.3-.5v-4l-4.8.5-10.9-97.8L36.1 44v-4l-17.9 2c-1 .1-1.7 1.1-1.6 2.2l15.5 139.1c.1 1.1 1 1.9 2 1.8L125 175H88.9l-53.4 6z"/></svg>